<svg width="22" height="25" viewBox="0 0 22 25" fill="none" xmlns="http://www.w3.org/2000/svg">
<g id="raphael:chat">
<path id="Vector" d="M10.8287 4.66563C5.86236 4.66563 1.83569 7.85078 1.83569 11.7797C1.83569 14.0273 3.15756 16.0297 5.21555 17.3328C4.92268 18.4891 4.33824 19.768 3.20878 20.9C3.20878 20.9 5.84595 20.6922 7.70825 18.4445C7.81529 18.4758 7.92626 18.4992 8.03461 18.5273C7.92907 18.1647 7.87428 17.7838 7.87242 17.4C7.87242 14.7492 10.352 12.6734 13.5197 12.6734C15.7938 12.6734 17.7079 13.7484 18.6089 15.3344C19.3759 14.2875 19.8218 13.0742 19.8218 11.7773C19.8218 7.84922 15.7951 4.66406 10.8287 4.66406V4.66563ZM18.5084 17.4016C18.5084 15.2219 16.2758 13.4539 13.5178 13.4539C10.7631 13.4539 8.52843 15.2227 8.52843 17.4023C8.52843 19.582 10.7631 21.35 13.5191 21.35C14.1285 21.35 14.7096 21.2594 15.2501 21.1C16.283 22.3484 17.7454 22.4633 17.7454 22.4633C17.1196 21.8352 16.7958 21.125 16.633 20.4836C17.7743 19.7609 18.5084 18.6492 18.5084 17.4016Z" fill="white"/>
</g>
</svg>
