<svg width="26" height="26" viewBox="0 0 26 26" fill="none" xmlns="http://www.w3.org/2000/svg">
<g id="ic:round-dashboard">
<path id="Vector" d="M4.52873 14.0417H10.7787C11.3516 14.0417 11.8204 13.5729 11.8204 13V4.66667C11.8204 4.09375 11.3516 3.625 10.7787 3.625H4.52873C3.95581 3.625 3.48706 4.09375 3.48706 4.66667V13C3.48706 13.5729 3.95581 14.0417 4.52873 14.0417ZM4.52873 22.375H10.7787C11.3516 22.375 11.8204 21.9062 11.8204 21.3333V17.1667C11.8204 16.5937 11.3516 16.125 10.7787 16.125H4.52873C3.95581 16.125 3.48706 16.5937 3.48706 17.1667V21.3333C3.48706 21.9062 3.95581 22.375 4.52873 22.375ZM14.9454 22.375H21.1954C21.7683 22.375 22.2371 21.9062 22.2371 21.3333V13C22.2371 12.4271 21.7683 11.9583 21.1954 11.9583H14.9454C14.3725 11.9583 13.9037 12.4271 13.9037 13V21.3333C13.9037 21.9062 14.3725 22.375 14.9454 22.375ZM13.9037 4.66667V8.83333C13.9037 9.40625 14.3725 9.875 14.9454 9.875H21.1954C21.7683 9.875 22.2371 9.40625 22.2371 8.83333V4.66667C22.2371 4.09375 21.7683 3.625 21.1954 3.625H14.9454C14.3725 3.625 13.9037 4.09375 13.9037 4.66667Z" fill="white"/>
</g>
</svg>
