<svg width="19" height="21" viewBox="0 0 19 21" fill="none" xmlns="http://www.w3.org/2000/svg">
<g id="fa:download" clip-path="url(#clip0_1167_7691)">
<path id="Vector" d="M14.3154 18.375C14.3154 18.138 14.2482 17.9329 14.1138 17.7598C13.9795 17.5866 13.8203 17.5 13.6365 17.5C13.4526 17.5 13.2935 17.5866 13.1591 17.7598C13.0248 17.9329 12.9576 18.138 12.9576 18.375C12.9576 18.612 13.0248 18.8171 13.1591 18.9902C13.2935 19.1634 13.4526 19.25 13.6365 19.25C13.8203 19.25 13.9795 19.1634 14.1138 18.9902C14.2482 18.8171 14.3154 18.612 14.3154 18.375ZM17.0309 18.375C17.0309 18.138 16.9637 17.9329 16.8294 17.7598C16.695 17.5866 16.5359 17.5 16.352 17.5C16.1682 17.5 16.0091 17.5866 15.8747 17.7598C15.7403 17.9329 15.6731 18.138 15.6731 18.375C15.6731 18.612 15.7403 18.8171 15.8747 18.9902C16.0091 19.1634 16.1682 19.25 16.352 19.25C16.5359 19.25 16.695 19.1634 16.8294 18.9902C16.9637 18.8171 17.0309 18.612 17.0309 18.375ZM18.3887 15.3125V19.6875C18.3887 20.0521 18.2897 20.362 18.0917 20.6172C17.8937 20.8724 17.6532 21 17.3704 21H1.75589C1.47301 21 1.23257 20.8724 1.03456 20.6172C0.836554 20.362 0.737549 20.0521 0.737549 19.6875V15.3125C0.737549 14.9479 0.836554 14.638 1.03456 14.3828C1.23257 14.1276 1.47301 14 1.75589 14H6.68845L8.12049 15.8594C8.53065 16.3698 9.01153 16.625 9.56313 16.625C10.1147 16.625 10.5956 16.3698 11.0058 15.8594L12.4484 14H17.3704C17.6532 14 17.8937 14.1276 18.0917 14.3828C18.2897 14.638 18.3887 14.9479 18.3887 15.3125ZM14.9412 7.5332C15.0614 7.9069 15.0119 8.22591 14.7927 8.49023L10.0405 14.6152C9.91318 14.7884 9.75407 14.875 9.56313 14.875C9.37219 14.875 9.21308 14.7884 9.08578 14.6152L4.33355 8.49023C4.11432 8.22591 4.06482 7.9069 4.18504 7.5332C4.30526 7.17773 4.51388 7 4.81089 7H7.52646V0.875C7.52646 0.638021 7.59364 0.432943 7.728 0.259766C7.86237 0.0865885 8.02148 0 8.20535 0H10.9209C11.1048 0 11.2639 0.0865885 11.3983 0.259766C11.5326 0.432943 11.5998 0.638021 11.5998 0.875V7H14.3154C14.6124 7 14.821 7.17773 14.9412 7.5332Z" fill="white"/>
</g>
<defs>
<clipPath id="clip0_1167_7691">
<rect width="17.6512" height="21" fill="white" transform="translate(0.737549)"/>
</clipPath>
</defs>
</svg>
