<svg width="22" height="25" viewBox="0 0 22 25" fill="none" xmlns="http://www.w3.org/2000/svg">
<g id="mingcute:diary-line" clip-path="url(#clip0_1167_7705)">
<g id="Group">
<path id="Vector" fill-rule="evenodd" clip-rule="evenodd" d="M16.6128 2.0835C17.0546 2.08333 17.4801 2.28184 17.804 2.63922C18.128 2.99661 18.3264 3.48646 18.3595 4.01058L18.3639 4.16683V20.8335C18.3641 21.3591 18.1972 21.8653 17.8968 22.2507C17.5964 22.6361 17.1847 22.8722 16.7441 22.9116L16.6128 22.9168H6.10616C5.66438 22.917 5.23887 22.7185 4.91493 22.3611C4.59099 22.0037 4.39256 21.5139 4.35943 20.9897L4.35505 20.8335V19.7918C4.13189 19.7915 3.91725 19.6899 3.75498 19.5076C3.5927 19.3254 3.49505 19.0763 3.48197 18.8112C3.4689 18.5462 3.54138 18.2852 3.68461 18.0816C3.82784 17.878 4.03101 17.7471 4.25261 17.7158L4.35505 17.7085V15.6252C4.13189 15.6249 3.91725 15.5232 3.75498 15.3409C3.5927 15.1587 3.49505 14.9096 3.48197 14.6445C3.4689 14.3795 3.54138 14.1185 3.68461 13.9149C3.82784 13.7113 4.03101 13.5805 4.25261 13.5491L4.35505 13.5418V11.4585C4.13189 11.4582 3.91725 11.3565 3.75498 11.1743C3.5927 10.992 3.49505 10.7429 3.48197 10.4779C3.4689 10.2128 3.54138 9.95185 3.68461 9.74825C3.82784 9.54466 4.03101 9.41381 4.25261 9.38245L4.35505 9.37516V7.29183C4.13189 7.29153 3.91725 7.18987 3.75498 7.00761C3.5927 6.82535 3.49505 6.57625 3.48197 6.31121C3.4689 6.04617 3.54138 5.78518 3.68461 5.58159C3.82784 5.37799 4.03101 5.24715 4.25261 5.21579L4.35505 5.2085V4.16683C4.35491 3.64123 4.52176 3.13499 4.82216 2.74959C5.12255 2.36419 5.53429 2.12812 5.97483 2.0887L6.10616 2.0835H16.6128ZM16.6128 4.16683H6.10616V20.8335H16.6128V4.16683ZM14.4239 6.25016C14.7504 6.25018 15.0652 6.39487 15.3068 6.65602C15.5485 6.91716 15.6998 7.27604 15.7311 7.66266L15.7372 7.81266V9.896C15.7372 10.2844 15.6156 10.6589 15.3961 10.9464C15.1766 11.234 14.875 11.4139 14.55 11.4512L14.4239 11.4585H8.29504C7.96857 11.4585 7.6538 11.3138 7.41212 11.0526C7.17044 10.7915 7.01918 10.4326 6.98784 10.046L6.98171 9.896V7.81266C6.98173 7.42424 7.10335 7.04976 7.32285 6.76223C7.54235 6.4747 7.84399 6.29474 8.16896 6.25745L8.29504 6.25016H14.4239ZM13.9861 8.3335H8.73282V9.37516H13.9861V8.3335Z" fill="#F8F8F8"/>
</g>
</g>
<defs>
<clipPath id="clip0_1167_7705">
<rect width="21.0133" height="25" fill="white" transform="translate(0.85376)"/>
</clipPath>
</defs>
</svg>
