<svg width="22" height="25" viewBox="0 0 22 25" fill="none" xmlns="http://www.w3.org/2000/svg">
<g id="codicon:book">
<path id="Vector" fill-rule="evenodd" clip-rule="evenodd" d="M19.0996 3.125H11.8763L11.4166 3.35938L10.5629 4.35938L9.70928 3.35938L9.24961 3.125H2.02629L1.36963 3.90625V19.5312L2.02629 20.3125H8.97381L10.1033 21.6406H11.0226L12.1521 20.3125H19.0996L19.7563 19.5312V3.90625L19.0996 3.125ZM9.90628 19.25L9.66988 18.9844L9.24961 18.75H2.68296V4.6875H8.97381L9.94568 5.84375L9.90628 19.25ZM18.4429 18.75H11.8763L11.4166 18.9844L11.2327 19.1875V5.78125L12.1521 4.6875H18.4429V18.75ZM7.93628 7.8125H3.99629V9.375H7.93628V7.8125ZM7.93628 14.0625H3.99629V15.625H7.93628V14.0625ZM3.99629 10.9375H7.93628V12.5H3.99629V10.9375ZM17.1296 7.8125H13.1896V9.375H17.1296V7.8125ZM13.1896 10.9375H17.1296V12.5H13.1896V10.9375ZM13.1896 14.0625H17.1296V15.625H13.1896V14.0625Z" fill="white"/>
</g>
</svg>
