<svg width="22" height="25" viewBox="0 0 22 25" fill="none" xmlns="http://www.w3.org/2000/svg">
<g id="map:library" clip-path="url(#clip0_1167_7703)">
<path id="Vector" d="M11.4247 8.6735C13.0861 8.6735 14.4271 7.065 14.4271 5.082C14.4271 3.103 13.0865 1.5 11.4247 1.5C9.76554 1.5 8.41859 3.1035 8.41859 5.082C8.41859 7.0645 9.76596 8.6735 11.4247 8.6735ZM14.346 9.5C15.7207 9.5 16.2977 10.897 16.2977 10.897L20.7345 18.1695C20.9181 18.494 21.0261 18.891 21.0261 19.3195C21.0261 20.4495 20.2579 21.368 19.311 21.368C19.0924 21.366 18.876 21.3159 18.6727 21.2205L15.983 20.3335V23.5H6.73711V20.3335L4.04656 21.222C3.85744 21.31 3.63975 21.37 3.41238 21.37C2.95675 21.3693 2.51996 21.1536 2.19786 20.7702C1.87576 20.3868 1.69467 19.8671 1.69434 19.325C1.69434 18.897 1.80066 18.5065 1.99104 18.181L6.42485 10.897C6.42485 10.897 7.00145 9.5 8.37026 9.5H14.346ZM11.3626 21.294L14.8281 19.924L14.7528 19.899C12.3552 19.063 13.2743 15.285 15.6661 16.1305L15.983 16.2645V12.004L11.3647 13.8155L6.73711 12.004V16.2645L7.05399 16.13C9.44446 15.285 10.3732 19.0625 7.97731 19.8985L7.89326 19.9235L11.3626 21.294Z" fill="white"/>
</g>
<defs>
<clipPath id="clip0_1167_7703">
<rect width="21.0133" height="25" fill="white" transform="translate(0.85376)"/>
</clipPath>
</defs>
</svg>
