<svg width="84" height="63" viewBox="0 0 84 63" fill="none" xmlns="http://www.w3.org/2000/svg">
<g id="Group 18">
<path id="Rectangle 59" d="M1.20122 16.9152L42.8988 0.161713L82.5523 16.9152C83.7554 18.6119 83.6686 19.562 82.5523 21.2587L41.4679 39.8737L1.20122 21.2587C0.298965 19.5077 0.0348829 18.5535 1.20122 16.9152Z" fill="white"/>
<path id="Rectangle 60" d="M9.9353 25.242L12.5291 26.2871L12.2239 51.4038C13.4438 53.0739 13.8843 54.0526 14.2582 55.8674V61.8188C11.2322 63.3864 9.9353 62.8639 7.34155 61.8188V55.8673C7.81455 54.2043 8.0373 53.2801 9.37587 51.4037L9.9353 25.242Z" fill="#CB8461"/>
<path id="Rectangle 62" d="M20.3086 33.6041L41.4908 44.0546L63.5377 34.1266C66.4989 38.0486 67.5737 43.3646 66.6934 49.5744C53.3276 51.2085 49.646 55.2394 41.9626 62.8655C31.7737 52.6895 26.3746 50.3148 17.0718 49.5744C16.3515 44.454 17.5874 38.2886 20.3086 33.6041Z" fill="#CB8461"/>
<path id="Rectangle 63" d="M9.93568 25.242L35.2308 14.2298L37.0318 15.926L12.5294 26.2871L9.93568 25.242Z" fill="#CB8461"/>
<ellipse id="Ellipse 23" cx="36.7329" cy="14.2691" rx="2.59375" ry="2.61263" fill="#CB8461"/>
</g>
</svg>
