<svg width="22" height="25" viewBox="0 0 22 25" fill="none" xmlns="http://www.w3.org/2000/svg">
<g id="ph:student-fill">
<path id="Vector" d="M19.3318 5.50879L11.4518 2.38379C11.317 2.33033 11.1713 2.33033 11.0365 2.38379L3.15651 5.50879C3.02576 5.56065 2.91204 5.66014 2.83145 5.79317C2.75087 5.9262 2.70751 6.08602 2.70752 6.25V14.0625C2.70752 14.2697 2.7767 14.4684 2.89985 14.6149C3.023 14.7614 3.19003 14.8438 3.36418 14.8438C3.53834 14.8438 3.70537 14.7614 3.82852 14.6149C3.95167 14.4684 4.02085 14.2697 4.02085 14.0625V7.33398L6.77802 8.42676C6.04548 9.83477 5.81253 11.5311 6.13033 13.1433C6.44814 14.7554 7.29071 16.1517 8.47304 17.0254C6.99554 17.7148 5.71833 18.9619 4.78422 20.667C4.73564 20.7529 4.7019 20.8494 4.68495 20.951C4.66801 21.0525 4.6682 21.1571 4.68551 21.2586C4.70283 21.36 4.73692 21.4564 4.78581 21.542C4.8347 21.6277 4.89742 21.7009 4.97031 21.7575C5.0432 21.814 5.12481 21.8528 5.21041 21.8715C5.296 21.8902 5.38386 21.8885 5.46889 21.8664C5.55392 21.8444 5.63442 21.8025 5.7057 21.7431C5.77699 21.6837 5.83764 21.608 5.88414 21.5205C7.12113 19.2627 9.07471 17.9688 11.2442 17.9688C13.4136 17.9688 15.3672 19.2627 16.6042 21.5205C16.7005 21.6908 16.8493 21.8092 17.0184 21.85C17.1875 21.8909 17.3633 21.8509 17.5078 21.7388C17.6523 21.6266 17.7539 21.4513 17.7906 21.2508C17.8274 21.0502 17.7963 20.8405 17.7041 20.667C16.77 18.9619 15.4879 17.7148 14.0153 17.0254C15.1965 16.1517 16.0383 14.7564 16.356 13.1454C16.6738 11.5344 16.4416 9.83924 15.7103 8.43164L19.3318 6.99609C19.4626 6.94427 19.5764 6.84479 19.657 6.71176C19.7376 6.57872 19.781 6.41888 19.781 6.25488C19.781 6.09088 19.7376 5.93104 19.657 5.79801C19.5764 5.66498 19.4626 5.5655 19.3318 5.51367V5.50879ZM15.1842 11.7188C15.1843 12.4598 15.0368 13.1904 14.7537 13.8505C14.4706 14.5106 14.06 15.0815 13.5556 15.5162C13.0511 15.951 12.4672 16.2372 11.8518 16.3515C11.2364 16.4658 10.6069 16.4048 10.0151 16.1737C9.42328 15.9425 8.88598 15.5477 8.44726 15.0216C8.00854 14.4955 7.68091 13.8532 7.49125 13.1473C7.30159 12.4414 7.25531 11.6921 7.3562 10.9608C7.45709 10.2296 7.70228 9.53715 8.07165 8.94043L11.0365 10.1123C11.1713 10.1658 11.317 10.1658 11.4518 10.1123L14.4167 8.94043C14.9156 9.74511 15.1846 10.7188 15.1842 11.7188Z" fill="white"/>
</g>
</svg>
