<svg width="17" height="16" viewBox="0 0 17 16" fill="none" xmlns="http://www.w3.org/2000/svg">
<path id="Subtract" fill-rule="evenodd" clip-rule="evenodd" d="M0.169312 3.9303C0.169312 2.27344 1.51246 0.930298 3.16931 0.930298H13.9026C15.5595 0.930298 16.9026 2.27344 16.9026 3.9303V12.814C16.9026 14.4709 15.5595 15.814 13.9026 15.814H3.16931C1.51246 15.814 0.169312 14.4709 0.169312 12.814V3.9303ZM0.842567 3.2835C0.842567 2.73121 1.29028 2.2835 1.84257 2.2835H6.5359C7.08818 2.2835 7.5359 2.73121 7.5359 3.2835V14.1376C7.5359 14.6899 7.08818 15.1376 6.5359 15.1376H1.84257C1.29028 15.1376 0.842567 14.6899 0.842567 14.1376V3.2835ZM10.5426 2.2835C9.99031 2.2835 9.54259 2.73121 9.54259 3.2835V14.1376C9.54259 14.6899 9.99031 15.1376 10.5426 15.1376H15.2359C15.7882 15.1376 16.2359 14.6899 16.2359 14.1376V3.2835C16.2359 2.73121 15.7882 2.2835 15.2359 2.2835H10.5426Z" fill="black"/>
</svg>
